<?xml version="1.0" encoding="utf-8"?>
<svg viewBox="0 0 867 331" xmlns="http://www.w3.org/2000/svg">
  <g transform="matrix(0.1, 0, 0, -0.1, 0, 331)" fill="#000000" stroke="none">
    <path d="M365 3074 c-22 -8 -57 -31 -77 -51 -72 -70 -68 9 -68 -1333 0 -1357 -5 -1265 75 -1339 24 -22 61 -45 83 -51 28 -7 412 -10 1264 -8 1349 3 1246 -2 1312 64 66 66 61 -37 64 1312 2 880 -1 1235 -9 1265 -15 55 -90 131 -144 146 -28 8 -394 11 -1250 10 -1035 0 -1216 -3 -1250 -15z m381 -436 c16 -13 168 -151 339 -308 l310 -284 6 99 c4 55 7 136 8 179 1 59 5 84 18 98 19 21 56 24 70 6 15 -19 27 -407 14 -454 -6 -22 -22 -51 -36 -66 l-26 -28 172 0 172 0 -20 23 c-41 44 -43 60 -43 279 0 230 6 258 53 258 50 -1 52 -7 57 -205 l5 -186 96 83 c53 46 204 183 337 306 254 234 274 246 306 200 9 -12 16 -28 16 -35 0 -7 -151 -152 -335 -323 -184 -172 -335 -312 -335 -313 0 -1 93 -4 208 -5 170 -3 210 -7 225 -19 23 -21 22 -48 -3 -73 -20 -20 -30 -21 -280 -18 l-260 3 0 -165 0 -165 259 3 c251 3 260 3 280 -17 26 -26 27 -53 4 -73 -15 -13 -56 -17 -225 -19 -115 -2 -208 -5 -208 -6 0 -1 151 -142 335 -313 194 -180 335 -319 335 -329 0 -10 -11 -28 -25 -41 -19 -18 -29 -21 -45 -14 -11 5 -163 140 -336 299 -174 160 -325 296 -335 303 -18 13 -19 7 -19 -167 0 -168 -1 -182 -20 -201 -25 -25 -45 -25 -70 0 -19 19 -20 33 -20 234 0 207 1 214 25 260 l24 46 -154 0 c-85 0 -155 -4 -155 -9 0 -5 6 -14 13 -20 32 -26 39 -90 32 -295 -8 -210 -14 -236 -55 -236 -41 0 -48 27 -57 219 l-8 185 -323 -297 c-177 -163 -333 -304 -346 -312 -44 -29 -88 13 -64 62 7 15 121 128 253 250 132 123 275 258 318 301 l78 78 -203 3 c-112 1 -211 7 -220 12 -23 13 -23 41 1 70 19 24 21 24 260 27 161 2 247 0 260 -8 21 -11 21 -9 21 170 0 176 -1 180 -19 170 -12 -6 -113 -10 -259 -10 -219 0 -242 2 -263 19 -21 16 -21 21 -10 49 7 17 19 33 27 36 8 3 102 6 209 6 107 1 195 3 195 5 0 2 -132 126 -292 276 -361 334 -370 343 -361 366 9 25 34 53 48 53 7 0 25 -10 41 -22z" style="fill: rgb(255, 255, 255); paint-order: fill; stroke: rgb(149, 44, 215); stroke-width: 30px;"/>
    <path d="M7868 2885 c-113 -31 -212 -106 -257 -193 -53 -104 -66 -242 -30 -336 40 -107 123 -159 324 -202 92 -19 113 -28 137 -58 22 -26 23 -87 3 -125 -39 -76 -205 -101 -319 -48 -32 15 -81 43 -107 62 -27 19 -53 35 -58 35 -9 0 -121 -191 -121 -207 0 -11 65 -73 105 -100 131 -88 404 -96 572 -17 124 59 204 171 223 316 18 130 -10 226 -87 299 -54 52 -105 75 -234 104 -62 14 -124 32 -136 41 -50 32 -50 105 0 152 30 28 107 46 169 39 52 -7 156 -50 209 -88 17 -12 31 -20 33 -18 2 2 29 50 60 107 l58 104 -22 23 c-33 35 -149 93 -221 110 -77 18 -236 18 -301 0z" style="fill: rgb(255, 255, 255); paint-order: fill; stroke: rgb(149, 44, 215); stroke-width: 30px;"/>
    <path d="M3795 2848 c-11 -67 -185 -1172 -185 -1180 0 -4 63 -8 140 -8 77 0 140 3 140 8 -1 28 115 742 121 742 4 0 9 -8 12 -17 3 -10 66 -178 140 -373 l134 -355 149 0 149 0 92 580 c51 319 92 592 93 608 l0 27 -135 0 c-131 0 -135 -1 -140 -22 -3 -13 -27 -167 -55 -343 -70 -458 -54 -428 -127 -234 -33 90 -98 262 -143 382 l-83 217 -148 0 -148 0 -6 -32z" style="fill: rgb(255, 255, 255); paint-order: fill; stroke: rgb(149, 44, 215); stroke-width: 30px;"/>
    <path d="M4985 2858 c-8 -36 -185 -1168 -185 -1184 0 -12 60 -14 409 -14 l408 0 17 104 c9 58 16 116 16 130 l0 26 -265 0 c-205 0 -265 3 -265 13 0 6 7 63 17 125 l16 112 248 0 247 0 11 63 c6 34 13 88 17 120 l7 57 -245 0 -244 0 16 108 16 107 271 3 271 2 6 28 c3 15 10 56 16 92 6 36 13 80 16 98 l5 32 -410 0 -411 0 -5 -22z" style="fill: rgb(255, 255, 255); paint-order: fill; stroke: rgb(149, 44, 215); stroke-width: 30px;"/>
    <path d="M5900 2868 c-1 -7 30 -282 67 -611 l68 -597 155 2 155 3 150 389 c175 453 152 452 184 12 12 -155 24 -309 27 -343 l6 -63 153 0 152 0 251 583 c138 320 255 594 261 610 l11 27 -163 0 -162 0 -74 -193 c-140 -364 -234 -602 -240 -610 -4 -4 -15 149 -24 340 -10 192 -20 374 -24 406 l-6 57 -146 0 -146 0 -99 -268 c-181 -490 -199 -536 -207 -516 -4 10 -17 165 -28 344 -12 179 -24 351 -28 383 l-6 57 -143 0 c-108 0 -144 -3 -144 -12z" style="fill: rgb(255, 255, 255); paint-order: fill; stroke: rgb(149, 44, 215); stroke-width: 30px;"/>
    <path d="M3893 1402 c-100 -36 -171 -114 -192 -213 -21 -94 -8 -159 41 -215 41 -47 69 -60 190 -89 117 -27 148 -50 148 -111 0 -83 -65 -133 -171 -134 -70 0 -127 19 -189 65 l-48 35 -36 -61 c-20 -33 -36 -64 -36 -68 0 -4 15 -21 33 -38 76 -72 198 -104 323 -85 98 15 158 42 212 95 55 53 82 126 82 215 -1 151 -66 211 -274 252 -82 16 -121 55 -112 108 20 115 190 145 320 57 20 -14 40 -25 44 -25 4 0 22 27 41 61 32 58 32 61 15 80 -10 11 -47 34 -82 51 -58 29 -77 33 -161 35 -74 3 -108 -1 -148 -15z" style="fill: rgb(255, 255, 255); paint-order: fill; stroke: rgb(149, 44, 215); stroke-width: 30px;"/>
    <path d="M5621 1404 c-166 -45 -289 -176 -336 -359 -21 -83 -20 -229 3 -303 59 -188 232 -287 439 -252 75 12 190 60 198 82 5 13 -26 134 -35 137 -3 1 -32 -10 -65 -26 -53 -25 -72 -28 -156 -28 -88 0 -99 2 -138 28 -61 41 -91 108 -91 207 0 263 177 420 401 354 30 -9 68 -24 85 -35 17 -10 34 -19 38 -19 8 0 76 106 76 119 0 18 -92 74 -152 93 -72 22 -190 23 -267 2z" style="fill: rgb(255, 255, 255); paint-order: fill; stroke: rgb(149, 44, 215); stroke-width: 30px;"/>
    <path d="M4485 1398 c-2 -7 -22 -134 -45 -283 -50 -325 -51 -408 -6 -492 61 -111 200 -161 374 -134 156 24 240 102 286 261 14 49 106 610 106 645 0 12 -17 15 -82 15 l-83 0 -48 -303 c-39 -249 -52 -312 -75 -357 -36 -71 -87 -100 -179 -100 -114 0 -163 47 -163 155 0 33 20 183 43 333 l43 272 -83 0 c-58 0 -85 -4 -88 -12z" style="fill: rgb(255, 255, 255); paint-order: fill; stroke: rgb(149, 44, 215); stroke-width: 30px;"/>
    <path d="M6190 1402 c0 -4 -31 -207 -70 -451 -38 -244 -70 -445 -70 -447 0 -2 38 -4 85 -4 61 0 85 4 85 13 1 6 9 60 18 118 17 99 21 110 59 155 23 27 53 60 67 73 l26 24 14 -34 c8 -19 46 -104 84 -189 l70 -155 96 -3 97 -3 -15 28 c-7 15 -62 131 -120 257 l-107 228 124 132 c68 72 152 161 186 199 l63 67 -105 0 -105 0 -160 -172 c-88 -95 -172 -184 -187 -198 l-27 -25 6 35 c11 60 56 349 56 354 0 4 -38 6 -85 6 -47 0 -85 -4 -85 -8z" style="fill: rgb(255, 255, 255); paint-order: fill; stroke: rgb(149, 44, 215); stroke-width: 30px;"/>
    <path d="M6935 973 c-37 -241 -70 -446 -73 -456 -4 -16 13 -17 294 -15 l299 3 11 72 11 73 -209 0 -208 0 0 23 c0 12 7 63 15 112 8 50 15 93 15 98 0 4 87 7 194 7 l194 0 5 33 c3 17 9 51 12 75 l7 42 -191 0 c-217 0 -198 -11 -180 99 20 126 -11 111 229 111 234 0 212 -8 225 80 4 25 9 53 11 63 5 16 -14 17 -293 17 l-299 0 -69 -437z" style="fill: rgb(255, 255, 255); paint-order: fill; stroke: rgb(149, 44, 215); stroke-width: 30px;"/>
    <path d="M7749 1408 c-1 -1 -33 -205 -73 -453 l-71 -450 79 -3 c49 -2 82 1 86 8 4 6 17 79 30 163 12 84 25 158 28 165 3 9 22 12 65 10 l61 -3 80 -172 80 -173 93 0 93 0 -85 170 c-47 93 -85 174 -85 179 0 5 24 17 53 27 69 25 138 93 161 159 54 160 19 281 -99 340 l-60 30 -217 3 c-120 2 -219 2 -219 0z m374 -159 c53 -14 70 -46 65 -119 -7 -104 -50 -131 -222 -138 l-119 -5 6 24 c3 13 13 75 22 137 l17 112 97 0 c53 0 113 -5 134 -11z" style="fill: rgb(255, 255, 255); paint-order: fill; stroke: rgb(149, 44, 215); stroke-width: 30px;"/>
  </g>
</svg>