<?xml version="1.0" encoding="utf-8"?>
<svg viewBox="21.994 22.081 279.866 279.779" xmlns="http://www.w3.org/2000/svg">
	<path d="M365 3074 c-22 -8 -57 -31 -77 -51 -72 -70 -68 9 -68 -1333 0 -1357 -5 -1265 75 -1339 24 -22 61 -45 83 -51 28 -7 412 -10 1264 -8 1349 3 1246 -2 1312 64 66 66 61 -37 64 1312 2 880 -1 1235 -9 1265 -15 55 -90 131 -144 146 -28 8 -394 11 -1250 10 -1035 0 -1216 -3 -1250 -15z m381 -436 c16 -13 168 -151 339 -308 l310 -284 6 99 c4 55 7 136 8 179 1 59 5 84 18 98 19 21 56 24 70 6 15 -19 27 -407 14 -454 -6 -22 -22 -51 -36 -66 l-26 -28 172 0 172 0 -20 23 c-41 44 -43 60 -43 279 0 230 6 258 53 258 50 -1 52 -7 57 -205 l5 -186 96 83 c53 46 204 183 337 306 254 234 274 246 306 200 9 -12 16 -28 16 -35 0 -7 -151 -152 -335 -323 -184 -172 -335 -312 -335 -313 0 -1 93 -4 208 -5 170 -3 210 -7 225 -19 23 -21 22 -48 -3 -73 -20 -20 -30 -21 -280 -18 l-260 3 0 -165 0 -165 259 3 c251 3 260 3 280 -17 26 -26 27 -53 4 -73 -15 -13 -56 -17 -225 -19 -115 -2 -208 -5 -208 -6 0 -1 151 -142 335 -313 194 -180 335 -319 335 -329 0 -10 -11 -28 -25 -41 -19 -18 -29 -21 -45 -14 -11 5 -163 140 -336 299 -174 160 -325 296 -335 303 -18 13 -19 7 -19 -167 0 -168 -1 -182 -20 -201 -25 -25 -45 -25 -70 0 -19 19 -20 33 -20 234 0 207 1 214 25 260 l24 46 -154 0 c-85 0 -155 -4 -155 -9 0 -5 6 -14 13 -20 32 -26 39 -90 32 -295 -8 -210 -14 -236 -55 -236 -41 0 -48 27 -57 219 l-8 185 -323 -297 c-177 -163 -333 -304 -346 -312 -44 -29 -88 13 -64 62 7 15 121 128 253 250 132 123 275 258 318 301 l78 78 -203 3 c-112 1 -211 7 -220 12 -23 13 -23 41 1 70 19 24 21 24 260 27 161 2 247 0 260 -8 21 -11 21 -9 21 170 0 176 -1 180 -19 170 -12 -6 -113 -10 -259 -10 -219 0 -242 2 -263 19 -21 16 -21 21 -10 49 7 17 19 33 27 36 8 3 102 6 209 6 107 1 195 3 195 5 0 2 -132 126 -292 276 -361 334 -370 343 -361 366 9 25 34 53 48 53 7 0 25 -10 41 -22z" style="fill: rgb(255, 255, 255); paint-order: fill; stroke: rgb(149, 44, 215); stroke-width: 30px;" transform="matrix(0.1, 0, 0, -0.1, 0, 331)"/>
</svg>